# xmcd CD database file
# Copyright (C) 1993-1998 Ti Kan
# 
# Track frame offsets:
#     150
#     46147
#     69735
#     82725
#     102300
#     121800
#     143287
#     156875
#     208222
#     247650
#     259565
#     271587
# 
# Disc length: 3745 seconds
# 
# Revision: 1
# Processed by: cddbd v1.4b41PL1 Copyright (c) Steve Scherf et al.
# Submitted via: DiscPlay 4.0.4
# 
DISCID=900e9f0c
DTITLE=John Lee Hooker - Classic Blues
DYEAR=1900
DGENRE=
TTITLE0=Never Get Out of These Blues Alive
TTITLE1=(I Got) a Good 'Un
TTITLE2=Mr. Lucky
TTITLE3=Shake it Baby
TTITLE4=I Don't Need No Steam Heat
TTITLE5=Bang, Bang, Bang, Bang
TTITLE6=One Bourbon, One Scotch, One Beer
TTITLE7=Pot's On, Gas On High
TTITLE8=Endless Boogie, Parts 27 and 28
TTITLE9=Cry before I Go
TTITLE10=Boom Boom
TTITLE11=Hey Boogie
EXTD=
EXTT0=
EXTT1=
EXTT2=
EXTT3=
EXTT4=
EXTT5=
EXTT6=
EXTT7=
EXTT8=
EXTT9=
EXTT10=
EXTT11=
PLAYORDER=
